<svg id="Layer_10" data-name="Layer 10" xmlns="http://www.w3.org/2000/svg" viewBox="0 0 718.31 1009.62"><defs><style>.cls-1{fill:#1b1c1b;}.cls-2{font-size:167.92px;fill:#231f20;font-family:EffraHeavy-Regular, Effra Heavy;}.cls-3{letter-spacing:0em;}.cls-4{letter-spacing:-0.01em;}.cls-5{letter-spacing:0em;}.cls-6{font-size:114.89px;font-family:Effra-Regular, Effra;letter-spacing:0.07em;}.cls-6,.cls-9{fill:#3bb9ff;}.cls-7{letter-spacing:0.09em;}.cls-8{letter-spacing:0.08em;}</style></defs><title>restful-logo-VERTICAL-SVG</title><path class="cls-1" d="M733,496.58,678.83,442a116.53,116.53,0,0,0,51.25-98c-.79-64.28-55-115.11-119.39-115.11H467.5V466.7a36.51,36.51,0,1,0,73,0v-4.58h0V289h5.11V411l51.09,51.14L615,480.52,683.9,549.9a25.51,25.51,0,0,0,3.31,1.65,35.91,35.91,0,0,0,45.76-55ZM639.53,353.09l-21.07,12.28a26.45,26.45,0,0,1-26.28.22l-9-5.06a26.52,26.52,0,0,0-26.5.41L554,362.55V292.5l2.63-1.62a26.48,26.48,0,0,1,26.62-.3l8.67,4.92a26.67,26.67,0,0,0,26.28-.11L639.53,283Z" transform="translate(-227.05 -13.5)"/><text class="cls-2" transform="translate(0 885.66)">R<tspan class="cls-3" x="105.45" y="0">E</tspan><tspan class="cls-4" x="205.86" y="0">S</tspan><tspan class="cls-5" x="302.41" y="0">TFUL</tspan><tspan class="cls-6"><tspan x="1.87" y="98">C</tspan><tspan class="cls-7" x="88.15" y="98">OUNTRI</tspan><tspan class="cls-8" x="567.23" y="98">E</tspan><tspan class="cls-7" x="640.88" y="98">S</tspan></tspan></text><path class="cls-9" d="M562.83,14.24C384.51,25.64,240.48,169.67,229.07,348c-13.8,215.74,164.8,394.33,380.54,380.53C787.92,717.11,932,573.07,943.34,394.76,957.13,179,778.55.46,562.83,14.24Zm346.6,336c.21,3.31.25,6.58.36,9.87H833.4C831.52,275.6,808.67,198.57,772,139.16l.42-.19c8.45-4.11,16.65-8.52,24.56-13.13C861.17,181.06,903.72,260.86,909.43,350.21Zm-113.5,32.53h14.82c-1.88,80.82-23.64,154.37-58.4,210.34-47.49-19.87-100.55-30.93-154.79-32.29V541.4a11.33,11.33,0,1,0-22.66,0v19.39C520.58,562.14,467.47,573.2,420,593c-34.74-56-56.49-129.49-58.37-210.29h19.78a11.33,11.33,0,0,0,0-22.66H361.66c1.89-81.58,24-155.72,59.37-211.89,47.15,19.62,99.9,30.55,153.87,31.89v25.43a11.33,11.33,0,1,0,22.66,0V180.08c53.86-1.34,106.59-12.26,153.85-31.85,35.3,56.16,57.46,130.29,59.34,211.85H795.93a11.33,11.33,0,1,0,0,22.66ZM764.18,623.12c5.14,2.52,10.2,5.23,15.21,8a324.23,324.23,0,0,1-56.82,33.94,292.66,292.66,0,0,0,37.79-43.8C761.62,621.87,762.85,622.45,764.18,623.12Zm-352.11-1.83a292.85,292.85,0,0,0,37.81,43.81A324.37,324.37,0,0,1,393.06,631c4.93-2.73,10-5.4,15.21-8C409.51,622.45,410.82,621.89,412.07,621.29Zm231.27,68.83A323.79,323.79,0,0,1,597.56,695V583.44c49.59,1.31,98.07,11.13,141.83,28.78C712.62,648.86,679.79,676.06,643.34,690.12ZM574.9,695c-3.28-.11-6.55-.14-9.86-.36a318.76,318.76,0,0,1-35.75-4.39c-36.55-14-69.47-41.3-96.3-78,43.67-17.6,92.22-27.42,141.91-28.73Zm-165-576.42c-5.29-2.56-10.43-5.24-15.48-8a324.47,324.47,0,0,1,55.42-32.85A292.46,292.46,0,0,0,413.13,120C412.06,119.53,411,119.05,409.91,118.54Zm349.41,1.53a291.8,291.8,0,0,0-36.79-42.41,324.55,324.55,0,0,1,55.29,32.94c-5,2.74-10.07,5.44-15.29,8C761.47,119.09,760.38,119.57,759.32,120.07ZM529.08,52.64a322.89,322.89,0,0,1,45.82-4.89V157.43c-49.3-1.29-97.44-11-140.82-28.36C460.65,93.17,493.11,66.51,529.08,52.64Zm68.48-4.84c3.27.11,6.53.15,9.82.36a319,319,0,0,1,35.75,4.39c36.06,13.86,68.61,40.56,95.24,76.56-43.4,17.34-91.57,27-140.81,28.32Zm-222.16,78c7.91,4.6,16.13,9,24.65,13.14l.4.19c-36.69,59.41-59.55,136.46-61.44,221H262.58C265.81,266.51,308.91,183,375.4,125.8ZM263,392.55c-.21-3.29-.24-6.54-.35-9.81H339c1.87,83.77,24.38,160.22,60.53,219.41l-1.33.62c-8.35,4.1-16.38,8.46-24.09,13C310.67,560.58,268.66,481.28,263,392.55ZM798.27,615.89c-7.88-4.62-15.87-9.07-24-13.08l-1.37-.66C809,543,831.52,466.52,833.4,382.74h76.43C906.61,475.7,864,558.78,798.27,615.89Z" transform="translate(-227.05 -13.5)"/></svg>