<svg id="Layer_9" data-name="Layer 9" xmlns="http://www.w3.org/2000/svg" viewBox="0 0 1192.39 391.27"><defs><style>.cls-1{fill:#231f20;}.cls-2{fill:#3bb9ff;}.cls-3{fill:#1b1c1b;}</style></defs><title>restful-logo-HORIZONTAL-SVG</title><path class="cls-1" d="M454.63,354.9h49.28a56.88,56.88,0,0,1,17.41,2.49,36.77,36.77,0,0,1,13.3,7.41A33,33,0,0,1,543.19,377a43.88,43.88,0,0,1,3,17q0,11.78-5.18,20.44a39.62,39.62,0,0,1-13.75,13.84L552.84,474H518.91l-20.18-40.53H485.52V474H454.63Zm46.25,53.74a13.94,13.94,0,0,0,10.17-3.84Q515,401,515,394.53q0-6.78-3.75-10.71t-10.53-3.93H485.52v28.75Z" transform="translate(-2.51 -270.34)"/><path class="cls-1" d="M566.76,354.9h85.71v27.31H598.36V400.6h44.46v25.72H598.36v20.35h57.86V474H566.76Z" transform="translate(-2.51 -270.34)"/><path class="cls-1" d="M682.82,436.31a51,51,0,0,0,13,9.11,38.26,38.26,0,0,0,17.68,4.11,27.29,27.29,0,0,0,4.82-.45,14.32,14.32,0,0,0,4.46-1.52,9.19,9.19,0,0,0,3.21-2.85,7.89,7.89,0,0,0,1.26-4.65q0-4.63-4.74-7.67a63.39,63.39,0,0,0-13.83-6.07l-6.61-2.15a76,76,0,0,1-11.16-4.64,46.62,46.62,0,0,1-10.09-6.87,32.06,32.06,0,0,1-7.23-9.47,27.74,27.74,0,0,1-2.77-12.76,38.09,38.09,0,0,1,3-15.27,35.3,35.3,0,0,1,8.84-12.32,40.7,40.7,0,0,1,14.37-8.21,60.74,60.74,0,0,1,19.82-2.95,72.6,72.6,0,0,1,15.89,1.61,70.17,70.17,0,0,1,12.5,3.93,49.16,49.16,0,0,1,9.1,5,37.52,37.52,0,0,1,5.72,4.83l-16.07,20.35a66.24,66.24,0,0,0-13-7.59,34.66,34.66,0,0,0-13.92-2.94,21.06,21.06,0,0,0-4.65.53,15.66,15.66,0,0,0-4.19,1.61,9.11,9.11,0,0,0-3,2.77,7.28,7.28,0,0,0-1.16,4.19,8.08,8.08,0,0,0,1.34,4.65,11.76,11.76,0,0,0,3.66,3.39,29.71,29.71,0,0,0,5.63,2.59c2.2.77,4.55,1.58,7,2.41l5.71,1.78q6.07,2,12.32,4.55a40.42,40.42,0,0,1,11.25,7,34.84,34.84,0,0,1,8.22,10.89q3.21,6.53,3.21,16a30.91,30.91,0,0,1-3.84,15.18,38.16,38.16,0,0,1-10.36,12,49,49,0,0,1-15.35,7.77,62.84,62.84,0,0,1-18.84,2.77q-17.85,0-29.91-4.74a61.82,61.82,0,0,1-20.44-12.76Z" transform="translate(-2.51 -270.34)"/><path class="cls-1" d="M805.66,382.57h-36.6V354.9H873.87v27.67H837.62V474h-32Z" transform="translate(-2.51 -270.34)"/><path class="cls-1" d="M888.15,354.9h83v27.67H919.75v23h39.82v26.07H919.75V474h-31.6Z" transform="translate(-2.51 -270.34)"/><path class="cls-1" d="M984.75,354.9h31.6v69.81q0,9.82,4.55,16.07T1036,447q10.53,0,15-6.34t4.46-16V354.9h32v72.67a54.18,54.18,0,0,1-3.75,20.62A43.59,43.59,0,0,1,1073,463.81a46.67,46.67,0,0,1-16.25,9.82,60.23,60.23,0,0,1-20.62,3.39,61,61,0,0,1-20.71-3.39,47.23,47.23,0,0,1-16.34-9.73,42.6,42.6,0,0,1-10.62-15.53,54.69,54.69,0,0,1-3.75-20.8Z" transform="translate(-2.51 -270.34)"/><path class="cls-1" d="M1108.12,354.9h31.61v91.23h55.17V474h-86.78Z" transform="translate(-2.51 -270.34)"/><path class="cls-2" d="M524.33,563.9a28,28,0,0,1-4.15,5,37,37,0,0,1-6.84,5.31,42.08,42.08,0,0,1-9.29,4.22,37.31,37.31,0,0,1-11.6,1.71A41.55,41.55,0,0,1,476,577a37.82,37.82,0,0,1-12.83-8.85,40.41,40.41,0,0,1-8.37-13.44,48.86,48.86,0,0,1,0-33.66,42.33,42.33,0,0,1,8.37-13.68A38.63,38.63,0,0,1,476,498.12a40.37,40.37,0,0,1,16.67-3.36,38.45,38.45,0,0,1,20.59,5.55,34.64,34.64,0,0,1,6.59,5.2,37.17,37.17,0,0,1,4.46,5.37L516,518a50.07,50.07,0,0,0-3.48-4.34,24,24,0,0,0-4.83-4.09,28.37,28.37,0,0,0-6.48-3.06,26.72,26.72,0,0,0-8.42-1.22,26.83,26.83,0,0,0-21.08,9.53,30.69,30.69,0,0,0-5.68,10.26,39.27,39.27,0,0,0-1.95,12.46,37.58,37.58,0,0,0,2,12.4A31,31,0,0,0,471.8,560a26.18,26.18,0,0,0,8.92,6.72,27.45,27.45,0,0,0,11.73,2.45,28.41,28.41,0,0,0,9.47-1.41,27.72,27.72,0,0,0,6.72-3.36,26.67,26.67,0,0,0,4.52-4c1.18-1.34,2.17-2.46,3-3.36Z" transform="translate(-2.51 -270.34)"/><path class="cls-2" d="M585.17,580.27a39.93,39.93,0,0,1-16.37-3.36,41.6,41.6,0,0,1-13.19-9.16,42.2,42.2,0,0,1-8.8-13.62,44,44,0,0,1-3.17-16.74,43.51,43.51,0,0,1,3.17-16.67,42.78,42.78,0,0,1,8.74-13.56,40.74,40.74,0,0,1,29.62-12.53A40.31,40.31,0,0,1,601.6,498a41.59,41.59,0,0,1,13.26,9.17,42.42,42.42,0,0,1,8.8,13.56,43.7,43.7,0,0,1,3.17,16.67,44.17,44.17,0,0,1-3.17,16.74,42.37,42.37,0,0,1-8.8,13.62,41.57,41.57,0,0,1-13.26,9.16A40.31,40.31,0,0,1,585.17,580.27Zm0-11a27.83,27.83,0,0,0,21.44-9.53,31.36,31.36,0,0,0,5.93-10.2,37.82,37.82,0,0,0,0-24.68,31.36,31.36,0,0,0-5.93-10.2,27.43,27.43,0,0,0-9.28-6.9,28.75,28.75,0,0,0-12.16-2.51,28.27,28.27,0,0,0-12.09,2.51,27.63,27.63,0,0,0-9.23,6.9,31.34,31.34,0,0,0-5.92,10.2,37.64,37.64,0,0,0,0,24.68,31.34,31.34,0,0,0,5.92,10.2,28.34,28.34,0,0,0,9.23,7A27.7,27.7,0,0,0,585.17,569.28Z" transform="translate(-2.51 -270.34)"/><path class="cls-2" d="M652.73,496.71h11.73v47.65a47.71,47.71,0,0,0,1,10.07,20.55,20.55,0,0,0,3.36,7.88,15.3,15.3,0,0,0,6.35,5.07,24.63,24.63,0,0,0,10.08,1.78,24.27,24.27,0,0,0,9.95-1.78,15.39,15.39,0,0,0,6.36-5.07,20.86,20.86,0,0,0,3.36-7.88,48.41,48.41,0,0,0,1-10.07V496.71H717.6v50.45a42.22,42.22,0,0,1-2,13,29,29,0,0,1-5.93,10.5,27.48,27.48,0,0,1-10.08,7,41.86,41.86,0,0,1-28.83,0,28.06,28.06,0,0,1-10.14-7,28.41,28.41,0,0,1-6-10.5,41.92,41.92,0,0,1-2-13Z" transform="translate(-2.51 -270.34)"/><path class="cls-2" d="M746.8,496.71h11.85l44.47,63.65V496.71H814.6V578.2H802.87l-44.59-63.78V578.2H746.8Z" transform="translate(-2.51 -270.34)"/><path class="cls-2" d="M867.25,507h-29.2V496.71h70V507H879V578.2H867.25Z" transform="translate(-2.51 -270.34)"/><path class="cls-2" d="M931.51,496.71h26a35.78,35.78,0,0,1,13.2,2.14,25.4,25.4,0,0,1,8.73,5.5,20.44,20.44,0,0,1,4.89,7.63,25.57,25.57,0,0,1,1.53,8.68,25.92,25.92,0,0,1-3.67,13.8q-3.66,6-11.36,8.92l19.06,34.82h-13.2l-17.47-33.36H942.87V578.2H931.51Zm27,38.24q7.69,0,11.54-3.79T973.9,521q0-6.72-4.15-10.44t-11.48-3.73h-15.4V535Z" transform="translate(-2.51 -270.34)"/><path class="cls-2" d="M1014.83,496.71h11.73V578.2h-11.73Z" transform="translate(-2.51 -270.34)"/><path class="cls-2" d="M1056.36,496.71h51.31v10.38h-39.58V530.8h29.81v10.5h-29.81v26.39h42.52V578.2h-54.25Z" transform="translate(-2.51 -270.34)"/><path class="cls-2" d="M1138.21,558.4c1.14,1.31,2.43,2.63,3.85,4a27.59,27.59,0,0,0,4.83,3.6,26.37,26.37,0,0,0,6,2.56,24.92,24.92,0,0,0,7.2,1q8.07,0,12.59-3.66a12.1,12.1,0,0,0,4.52-9.9q0-6.72-5.14-10.08t-14.78-5.43a45.13,45.13,0,0,1-9.53-3.06,27.21,27.21,0,0,1-7.39-4.88,21,21,0,0,1-4.82-6.79,21.25,21.25,0,0,1-1.71-8.73,21.69,21.69,0,0,1,1.71-8.55,19.81,19.81,0,0,1,5.13-7.09,25.65,25.65,0,0,1,8.55-4.88,34.94,34.94,0,0,1,11.85-1.84,36.43,36.43,0,0,1,10.32,1.29,31.77,31.77,0,0,1,7.39,3.11,22.55,22.55,0,0,1,4.89,3.79c1.22,1.3,2.16,2.36,2.81,3.17l-7.82,7.21c-.49-.57-1.22-1.32-2.2-2.26a21,21,0,0,0-3.72-2.75,24.78,24.78,0,0,0-5.26-2.26,23.59,23.59,0,0,0-6.9-.91,19.44,19.44,0,0,0-6.72,1,14.16,14.16,0,0,0-4.64,2.68,10.33,10.33,0,0,0-2.69,3.73,10.85,10.85,0,0,0-.85,4.15,9.9,9.9,0,0,0,1.28,5.2,12.17,12.17,0,0,0,3.73,3.78,23.57,23.57,0,0,0,6,2.81q3.6,1.17,8.25,2.26a64,64,0,0,1,8.86,2.87,27.53,27.53,0,0,1,7.75,4.77,21.75,21.75,0,0,1,5.44,7.33,25,25,0,0,1,2,10.57,21.38,21.38,0,0,1-2.2,9.65,23.83,23.83,0,0,1-6,7.63,27.75,27.75,0,0,1-9.1,5,35.36,35.36,0,0,1-11.36,1.77,38.24,38.24,0,0,1-10.45-1.34,43.33,43.33,0,0,1-8.55-3.42,36.62,36.62,0,0,1-6.72-4.58,32.83,32.83,0,0,1-4.7-4.95Z" transform="translate(-2.51 -270.34)"/><path class="cls-3" d="M278.38,534.42l-29.6-29.84a63.71,63.71,0,0,0,28-53.57c-.43-35.13-30.09-62.92-65.26-62.92H133.26v130a20,20,0,1,0,39.92,0v-2.5h0V420.93H176v66.7l27.93,28,10,10,37.66,37.93a12.6,12.6,0,0,0,1.8.9,19.42,19.42,0,0,0,11.15,3.47,19.63,19.63,0,0,0,13.87-33.51ZM227.3,456l-11.52,6.71a14.43,14.43,0,0,1-14.36.12L196.49,460a14.51,14.51,0,0,0-14.49.23l-1.48.88V422.86L182,422a14.45,14.45,0,0,1,14.55-.16l4.74,2.69a14.6,14.6,0,0,0,14.37-.06l11.68-6.78Z" transform="translate(-2.51 -270.34)"/><path class="cls-2" d="M185.37,270.75C87.9,277,9.16,355.71,2.92,453.18c-7.54,117.94,90.09,215.57,208,208,97.48-6.23,176.21-85,182.44-182.44C400.91,360.83,303.3,263.21,185.37,270.75ZM374.84,454.4c.12,1.81.14,3.6.2,5.4H333.28c-1-46.18-13.52-88.29-33.57-120.76l.23-.11c4.62-2.25,9.1-4.66,13.42-7.18A176.72,176.72,0,0,1,374.84,454.4Zm-62,17.79h8.11c-1,44.18-12.93,84.38-31.93,115a235.55,235.55,0,0,0-84.61-17.65v-10.6a6.2,6.2,0,1,0-12.39,0v10.6a235.91,235.91,0,0,0-84.66,17.62c-19-30.59-30.88-70.79-31.91-114.95H86.21a6.2,6.2,0,1,0,0-12.39H75.4c1-44.59,13.15-85.13,32.46-115.83A235.25,235.25,0,0,0,192,361.4v13.91a6.2,6.2,0,0,0,12.39,0V361.4A236,236,0,0,0,288.46,344c19.3,30.7,31.41,71.23,32.44,115.81h-8.11a6.2,6.2,0,0,0,0,12.39Zm-17.35,131.4c2.81,1.38,5.58,2.86,8.32,4.38a177.1,177.1,0,0,1-31.07,18.55,159.81,159.81,0,0,0,20.66-23.94C294,602.91,294.71,603.22,295.44,603.59Zm-192.48-1a160,160,0,0,0,20.67,23.95,177.81,177.81,0,0,1-31.07-18.62q4.05-2.25,8.32-4.36C101.56,603.23,102.27,602.92,103,602.59Zm126.42,37.63a177.63,177.63,0,0,1-25,2.67v-61a223.85,223.85,0,0,1,77.53,15.73C267.25,617.66,249.31,632.53,229.38,640.22ZM192,642.86c-1.8-.06-3.58-.08-5.39-.19A174.67,174.67,0,0,1,167,640.26c-20-7.67-38-22.57-52.65-42.65A224,224,0,0,1,192,581.9Zm-90.19-315.1q-4.34-2.1-8.46-4.37a177.06,177.06,0,0,1,30.29-18,159.41,159.41,0,0,0-20.07,23.15C103,328.3,102.35,328,101.78,327.76Zm191,.84a160,160,0,0,0-20.11-23.19,177.55,177.55,0,0,1,30.23,18c-2.74,1.5-5.51,3-8.36,4.36ZM166.92,291.74A176.43,176.43,0,0,1,192,289.07V349a223.74,223.74,0,0,1-77-15.5C129.51,313.89,147.26,299.32,166.92,291.74Zm37.44-2.65c1.78.06,3.56.08,5.36.2a174.38,174.38,0,0,1,19.54,2.4c19.72,7.57,37.51,22.17,52.07,41.85a224.42,224.42,0,0,1-77,15.48ZM82.91,331.73c4.33,2.52,8.82,4.93,13.48,7.18l.22.11C76.55,371.49,64.05,413.61,63,459.8H21.24A176.71,176.71,0,0,1,82.91,331.73ZM21.46,477.55c-.11-1.8-.13-3.58-.2-5.36H63c1,45.79,13.33,87.58,33.09,119.94-.23.11-.49.22-.72.34-4.57,2.23-9,4.62-13.17,7.1A176.73,176.73,0,0,1,21.46,477.55ZM314.07,599.64c-4.3-2.53-8.67-5-13.13-7.15l-.75-.36C320,559.77,332.25,518,333.28,472.19h41.78A176.67,176.67,0,0,1,314.07,599.64Z" transform="translate(-2.51 -270.34)"/></svg>